<?xml version="1.0" standalone="no"?>
<!DOCTYPE svg PUBLIC "-//W3C//DTD SVG 20010904//EN"
 "http://www.w3.org/TR/2001/REC-SVG-20010904/DTD/svg10.dtd">
<svg version="1.0" xmlns="http://www.w3.org/2000/svg"
 width="480.000000pt" height="480.000000pt" viewBox="0 0 480.000000 480.000000"
 preserveAspectRatio="xMidYMid meet">
<metadata>
Created by potrace 1.11, written by Peter Selinger 2001-2013
</metadata>
<g transform="translate(0.000000,480.000000) scale(0.100000,-0.100000)"
fill="#000000" stroke="none">
<path d="M1679 3800 c-8 -4 -32 -10 -54 -13 -152 -21 -379 -120 -528 -230
-153 -113 -292 -277 -375 -442 -28 -56 -53 -113 -54 -125 0 -3 -4 -13 -9 -23
-8 -15 -42 -132 -54 -189 -17 -77 -23 -334 -10 -398 3 -14 8 -41 11 -60 3 -19
9 -46 14 -60 4 -14 8 -32 8 -40 0 -22 48 -145 88 -227 20 -40 36 -76 36 -80 1
-4 8 -13 16 -19 9 -7 12 -16 7 -25 -5 -8 -5 -11 0 -7 11 10 86 -92 78 -105 -4
-6 -1 -7 7 -2 10 6 12 4 7 -8 -4 -11 -2 -14 9 -10 7 3 15 0 15 -6 1 -6 2 -17
3 -23 0 -7 8 -13 16 -13 8 -1 14 -7 12 -14 -1 -7 2 -10 6 -7 5 3 18 -4 28 -16
12 -14 14 -19 4 -13 -9 5 -12 5 -7 -1 5 -5 12 -9 15 -10 23 -3 42 -19 38 -31
-3 -8 -2 -12 2 -9 13 8 53 -24 46 -36 -4 -6 -2 -8 4 -4 6 3 16 0 24 -7 7 -8
24 -19 36 -26 12 -7 20 -17 16 -23 -4 -6 -3 -8 4 -4 6 3 13 2 17 -4 4 -6 11
-7 17 -4 7 5 9 2 5 -8 -4 -12 -1 -14 14 -11 10 3 19 1 19 -5 0 -5 11 -13 25
-16 15 -4 23 -11 19 -17 -4 -8 -9 -7 -15 2 -5 8 -9 9 -9 3 0 -18 12 -24 31
-13 14 7 19 6 19 -2 0 -7 3 -9 7 -6 11 11 32 -13 27 -31 -5 -15 -4 -15 6 1 12
19 36 24 24 5 -11 -18 -12 -48 -2 -42 5 4 7 12 4 20 -3 8 -1 14 4 14 16 0 25
-5 23 -11 -1 -4 7 -5 17 -2 12 3 20 0 20 -7 0 -7 7 -10 15 -6 8 3 20 -1 27 -7
17 -17 51 -30 43 -17 -8 13 -5 13 44 -5 23 -8 57 -15 76 -17 18 -1 32 -5 29
-9 -2 -4 14 -6 36 -4 25 2 43 -2 51 -11 7 -9 8 -14 1 -14 -6 0 -13 5 -15 10
-3 6 -4 5 -3 -2 4 -19 31 -16 30 4 -1 10 4 14 12 11 8 -3 14 -8 14 -12 -1 -11
-27 -41 -32 -36 -2 3 -5 -2 -5 -12 0 -12 4 -11 19 7 17 21 29 24 89 25 l69 1
-21 -22 c-16 -17 -18 -24 -7 -30 7 -4 10 -3 5 1 -4 5 3 19 15 32 16 17 24 20
35 11 7 -6 16 -8 20 -4 3 3 1 6 -6 6 -7 0 -10 4 -6 9 3 6 -3 8 -15 6 -11 -2
-22 -1 -24 3 -2 4 9 8 25 8 20 1 30 -4 34 -17 5 -15 9 -16 25 -7 10 7 18 16
17 22 -1 6 16 11 38 12 22 1 48 5 59 9 12 5 21 3 27 -6 7 -12 10 -12 21 0 11
12 10 13 -2 6 -11 -6 -12 -5 -5 3 6 6 22 13 35 16 14 2 25 5 25 7 0 2 47 10
68 10 9 0 15 5 11 10 -3 5 -2 8 3 7 4 -1 19 4 31 11 13 7 26 10 29 7 4 -3 12
-1 19 5 8 7 14 6 20 -2 4 -8 3 -9 -5 -5 -8 6 -8 1 1 -18 11 -26 28 -35 28 -16
0 6 -4 10 -9 10 -11 0 -11 49 -1 55 4 3 11 -2 14 -11 4 -9 2 -13 -5 -8 -8 4
-7 0 0 -15 15 -27 34 -28 26 -1 -3 11 -2 20 3 20 6 0 12 -5 14 -12 3 -8 7 -6
11 5 3 9 1 19 -5 23 -6 4 -8 3 -5 -2 3 -5 -3 -10 -14 -10 -10 0 -19 4 -19 8 0
4 5 8 11 8 6 0 17 7 26 15 8 8 18 13 23 10 4 -3 11 2 14 11 4 9 9 14 13 11 3
-4 21 7 41 23 19 15 41 26 49 23 7 -3 13 -2 12 3 -4 21 2 26 17 13 14 -11 15
-10 12 7 -2 14 2 18 16 16 10 -2 15 1 11 7 -4 7 0 8 10 5 10 -4 12 -10 6 -18
-5 -6 -9 -15 -9 -21 0 -5 -5 -11 -11 -13 -7 -2 -9 4 -5 15 5 17 5 17 -6 0 -6
-9 -15 -15 -20 -12 -16 10 -20 -13 -5 -25 13 -10 19 -10 35 5 10 9 23 14 28
11 5 -3 8 6 6 20 -1 16 2 24 9 21 7 -2 11 -11 9 -21 -2 -9 2 -16 8 -16 6 0 8
5 4 12 -5 8 -1 9 12 5 18 -7 18 -6 2 6 -11 9 -14 17 -8 23 5 5 5 15 1 23 -7
10 -13 10 -29 2 -12 -7 -23 -7 -26 -2 -4 5 8 12 25 16 32 7 109 -19 109 -37 0
-12 -14 -10 -28 4 -9 9 -12 9 -12 0 0 -11 5 -14 33 -16 6 -1 18 -8 25 -16 11
-13 11 -11 2 8 -7 15 -7 22 0 22 5 0 10 -4 10 -9 0 -5 14 -14 30 -21 17 -7 30
-16 30 -21 0 -5 5 -9 11 -9 7 0 18 -8 26 -17 8 -10 11 -12 8 -5 -5 10 1 9 24
-2 17 -9 31 -21 31 -26 0 -6 8 -10 19 -10 10 0 26 -10 35 -22 9 -13 14 -17 11
-11 -4 8 -1 11 9 7 9 -3 16 -14 16 -23 0 -14 2 -14 10 -1 8 13 10 12 10 -3 0
-10 4 -16 9 -13 10 7 61 -16 61 -27 0 -4 -7 -24 -15 -44 -34 -81 -36 -255 -4
-315 5 -10 7 -18 5 -18 -10 0 46 -94 80 -136 19 -22 30 -45 26 -49 -4 -5 -2
-5 4 -2 15 9 66 -32 58 -45 -4 -6 -2 -8 4 -5 18 12 41 -3 34 -21 -5 -15 -3
-15 10 -4 11 9 18 10 23 2 3 -6 10 -8 15 -5 5 3 12 0 17 -7 4 -7 17 -14 28
-15 46 -6 125 -28 125 -35 0 -4 5 -8 11 -8 5 0 7 5 4 10 -3 6 1 10 9 10 19 0
21 -11 4 -28 -8 -8 -8 -12 -1 -12 10 0 27 28 25 41 0 3 16 5 36 4 20 -1 42 2
49 8 7 5 16 6 21 3 6 -3 15 1 22 8 6 8 20 13 31 11 11 -2 22 2 26 11 3 9 12
12 25 8 13 -4 18 -2 14 4 -3 5 2 16 12 23 15 13 16 12 3 -3 -14 -18 -11 -20
24 -20 30 0 36 2 29 14 -5 7 -2 9 9 5 11 -4 14 -2 10 9 -3 7 0 14 6 14 6 0 11
-6 12 -12 0 -7 5 -3 11 10 6 12 17 22 25 22 7 0 13 5 13 10 0 6 12 23 26 37
20 20 23 28 12 34 -13 9 -11 10 15 13 13 1 19 73 7 81 -6 4 -8 -4 -11 -42 -1
-10 -11 -29 -23 -42 -11 -13 -15 -21 -8 -17 16 10 15 -2 -2 -19 -18 -18 -28
-7 -15 17 5 10 7 23 4 28 -4 6 -1 9 6 8 6 -2 14 3 17 11 3 9 0 11 -9 7 -8 -4
-6 -1 3 7 10 8 15 17 11 20 -3 4 -1 7 5 7 7 0 11 3 11 8 -3 18 2 32 12 32 5 0
7 -4 4 -10 -3 -5 -1 -10 4 -10 10 0 13 7 10 26 -2 13 25 22 50 18 19 -3 22 -2
11 5 -8 5 -17 8 -21 5 -8 -5 -22 14 -25 34 -2 8 3 11 12 8 11 -4 12 -2 4 13
-8 16 -5 23 18 41 17 13 19 17 6 11 -22 -11 -51 -41 -39 -41 4 0 2 -6 -4 -13
-6 -8 -8 -17 -4 -20 3 -4 2 -7 -4 -7 -13 0 -10 75 3 75 13 1 51 24 38 25 -5 0
-15 -5 -22 -12 -9 -9 -12 -9 -12 1 0 7 -5 9 -11 5 -8 -5 -8 -1 0 14 8 15 8 23
0 27 -6 4 -8 13 -5 21 3 8 2 24 -3 37 -5 13 -5 30 0 39 6 11 5 19 -2 24 -8 4
-9 3 -5 -4 4 -7 2 -12 -3 -12 -6 0 -11 7 -11 15 0 17 -38 93 -51 101 -5 3 -9
12 -9 20 0 9 5 12 12 8 7 -4 8 -3 4 5 -4 6 -12 9 -17 5 -12 -7 -51 31 -42 40
4 3 -1 6 -11 6 -9 0 -14 5 -11 10 3 6 0 10 -8 10 -7 0 -23 9 -35 20 -12 11
-26 20 -32 20 -6 0 -8 5 -4 12 4 7 3 8 -5 4 -6 -4 -23 -1 -36 8 -13 9 -31 16
-40 16 -8 0 -15 3 -15 8 0 11 -52 16 -165 16 -79 0 -112 -5 -156 -22 -58 -23
-128 -65 -166 -101 -28 -26 -34 -26 -63 2 -14 12 -26 21 -27 19 -3 -2 -30 13
-176 97 -23 13 -45 29 -49 35 -4 6 -8 8 -8 3 0 -10 -83 42 -93 59 -4 7 -14 11
-21 8 -8 -3 -17 -1 -21 5 -3 6 1 14 9 17 9 3 14 10 11 14 -3 4 1 13 9 19 10 9
17 7 27 -6 8 -9 9 -14 3 -10 -6 3 -11 0 -11 -8 0 -8 5 -15 11 -15 6 0 5 -4 -3
-9 -9 -6 -10 -11 -2 -15 6 -4 11 -2 11 4 0 6 5 8 13 4 8 -5 7 -2 -2 9 -8 10
-11 20 -7 24 3 3 -1 17 -9 29 -15 24 -8 36 23 40 9 2 10 -1 3 -10 -6 -7 -7
-17 -3 -21 4 -5 0 -5 -8 -1 -8 4 -4 -2 9 -13 13 -12 28 -21 35 -21 6 1 0 7
-13 14 -20 11 -21 14 -6 19 24 10 27 9 19 -5 -4 -7 -3 -8 5 -4 18 12 1 27 -22
20 -17 -5 -19 -4 -10 6 14 15 5 43 -11 33 -6 -3 0 6 13 20 25 27 59 38 44 15
-4 -7 5 -5 20 5 15 10 31 16 35 13 4 -2 8 4 9 14 1 11 -3 22 -8 26 -6 4 -6 11
1 19 8 10 8 15 -1 21 -8 5 -9 3 -4 -6 6 -9 4 -11 -5 -5 -9 6 -11 4 -5 -5 5 -8
4 -11 -3 -6 -7 4 -10 -1 -7 -14 4 -21 -4 -29 -36 -35 -17 -3 -19 -2 -9 10 7 8
17 12 23 8 6 -4 8 0 4 10 -3 9 0 23 8 31 8 7 11 17 7 21 -4 5 -1 4 7 0 11 -6
13 -4 8 8 -3 8 1 21 8 27 8 7 12 16 9 21 -3 5 2 12 11 15 13 6 14 8 3 15 -10
7 -11 9 0 9 7 0 10 5 7 10 -3 6 -2 10 3 10 5 0 12 14 16 30 6 31 23 42 23 15
0 -8 -3 -12 -7 -10 -4 2 -7 -2 -8 -10 -1 -8 -3 -22 -4 -30 -1 -8 -5 -15 -10
-15 -11 0 -6 -23 7 -32 14 -11 25 -10 25 3 0 5 -4 7 -10 4 -5 -3 -10 1 -10 9
0 19 11 21 27 5 8 -8 13 -8 18 0 3 6 3 11 -2 10 -4 -1 -16 1 -25 5 -17 8 -14
36 4 36 5 0 7 -4 3 -9 -9 -15 15 -25 28 -12 9 9 8 11 -4 6 -16 -6 -17 -2 -21
49 -1 16 -7 22 -17 19 -11 -3 -11 -1 2 7 9 6 15 16 11 21 -3 5 0 16 6 24 10
12 10 15 -1 15 -9 0 -10 3 -4 8 9 7 14 19 19 50 1 7 5 12 9 12 4 0 12 0 17 0
6 0 2 -9 -8 -21 -12 -12 -18 -32 -17 -49 1 -16 -1 -27 -6 -24 -23 14 -6 -6 19
-22 17 -11 23 -12 16 -3 -14 17 -14 49 0 49 5 0 2 6 -8 13 -17 13 -16 15 15
41 22 17 27 24 14 20 -20 -6 -20 -5 -1 10 11 9 15 16 10 16 -6 0 -15 -5 -21
-11 -8 -8 -16 -8 -30 0 -11 6 -13 11 -4 11 8 0 11 6 7 16 -3 9 -2 12 4 9 7 -4
9 5 5 24 -5 31 8 50 21 30 5 -8 3 -9 -6 -4 -9 5 -11 4 -6 -3 11 -19 22 -14 35
16 9 22 9 24 -2 11 -11 -15 -15 -15 -32 -2 -12 10 -14 14 -5 10 9 -2 24 1 33
8 16 12 16 13 1 19 -9 4 -19 4 -22 1 -3 -3 0 -5 7 -5 7 0 9 -5 6 -11 -4 -6
-10 -7 -13 -4 -10 9 -10 215 0 209 4 -3 8 0 8 5 0 6 -5 11 -12 11 -13 0 -2 14
13 16 5 1 15 2 22 3 7 1 5 6 -6 12 -12 7 -16 17 -12 30 4 12 2 19 -6 19 -7 0
-9 -3 -6 -6 3 -4 2 -16 -4 -27 -9 -15 -8 -18 2 -12 8 5 10 4 5 -3 -13 -22 -26
-12 -22 15 3 14 2 31 -1 37 -9 14 -11 45 -4 44 3 0 8 0 11 2 9 3 45 10 65 13
11 1 24 7 28 12 5 6 6 3 3 -8 -5 -15 -3 -16 14 -7 16 9 22 7 27 -5 5 -13 7
-14 14 -3 5 7 9 18 9 23 0 6 -4 4 -9 -4 -6 -9 -11 -10 -15 -2 -4 6 -12 9 -17
6 -5 -4 -9 -1 -9 5 0 7 8 9 20 5 11 -3 20 -2 20 3 0 6 11 9 25 7 14 -1 25 1
25 5 0 4 10 10 23 13 22 6 22 6 2 -10 -20 -15 -20 -15 3 -8 19 5 22 3 22 -19
0 -14 4 -26 10 -26 5 0 17 -14 26 -32 9 -18 28 -41 41 -52 19 -15 22 -21 11
-28 -9 -6 -5 -7 11 -3 16 5 21 4 17 -4 -4 -6 0 -11 8 -11 9 0 16 -5 16 -11 0
-5 5 -7 10 -4 6 3 10 1 10 -4 0 -18 -5 -26 -13 -23 -5 1 -6 -2 -2 -8 5 -8 11
-8 21 1 7 6 11 15 8 20 -3 5 0 9 5 9 6 0 11 -4 11 -8 0 -4 8 -9 18 -10 22 -2
57 -10 57 -12 0 -1 19 -3 43 -4 23 -1 42 3 42 9 0 5 4 4 9 -4 5 -8 11 -9 15
-3 4 6 15 9 26 7 11 -2 20 1 20 7 0 6 7 5 17 -3 9 -8 14 -9 10 -3 -4 7 0 17 8
24 8 7 15 10 15 6 0 -3 17 5 38 19 39 25 89 83 84 98 -1 4 3 6 9 5 6 -2 13 5
14 15 2 10 7 26 11 35 4 9 8 21 8 26 1 5 8 11 16 13 13 4 13 3 0 -6 -10 -7
-11 -11 -2 -11 6 0 12 -5 12 -11 0 -5 -5 -7 -12 -3 -6 4 -8 3 -5 -4 10 -14 -3
-43 -15 -36 -6 4 -5 -3 1 -15 10 -18 15 -19 31 -9 10 7 17 14 15 17 -3 2 -11
-2 -20 -9 -20 -16 -19 -12 6 39 17 36 18 45 7 52 -12 8 -4 13 16 10 6 -1 6 3
0 11 -18 25 -3 75 18 62 7 -4 8 -2 4 4 -13 22 -46 -9 -43 -42 1 -16 -3 -31 -9
-33 -17 -6 -6 70 12 84 13 10 13 12 -6 18 -15 5 -20 13 -17 26 3 10 1 22 -4
25 -6 3 -7 15 -3 27 3 12 3 19 -1 15 -9 -8 -45 53 -38 65 2 4 -1 7 -7 7 -16 0
-80 67 -72 75 4 4 2 5 -3 4 -17 -5 -55 12 -55 23 0 6 -3 9 -6 6 -3 -4 -20 -2
-37 4 -183 56 -372 -48 -424 -233 l-16 -57 -81 -22 c-77 -21 -89 -24 -137 -35
-11 -2 -30 -7 -42 -9 -12 -3 -16 -3 -10 0 10 4 10 10 -1 26 -8 11 -12 27 -9
36 5 11 3 13 -8 7 -8 -4 -11 -5 -7 0 4 4 2 17 -4 28 -9 17 -8 19 6 14 9 -4 16
-2 16 3 0 6 -8 10 -17 10 -12 1 -30 26 -55 78 -20 42 -46 92 -58 110 -20 29
-20 31 -4 25 16 -6 17 -5 4 9 -8 9 -17 14 -19 12 -6 -6 -28 21 -35 43 -4 12
-13 24 -21 27 -8 3 -15 10 -15 16 0 6 -15 24 -32 41 -18 17 -27 27 -19 23 9
-5 12 -3 7 4 -4 7 -12 12 -18 12 -6 0 -33 23 -60 50 -27 28 -53 50 -57 50 -5
0 -11 4 -13 8 -1 4 -18 18 -36 31 -18 12 -29 27 -26 33 4 6 2 8 -4 4 -6 -3
-28 5 -48 19 -85 58 -332 165 -379 165 -8 0 -15 3 -15 8 0 4 -12 7 -27 8 -51
2 -93 8 -93 14 0 9 -355 9 -371 0z m1325 -1925 c-10 -8 -23 -15 -29 -15 -5 0
1 7 13 16 12 8 19 21 16 27 -5 8 -3 8 6 0 12 -11 11 -15 -6 -28z m-279 -325
c-3 -5 -13 -6 -21 -3 -12 4 -13 8 -3 14 15 9 32 2 24 -11z m-75 -62 c0 -4 -4
-8 -9 -8 -6 0 -12 4 -15 8 -3 5 1 9 9 9 8 0 15 -4 15 -9z m-663 -203 c0 -8 -4
-15 -9 -15 -10 0 -11 14 -1 23 9 10 10 9 10 -8z m-137 -6 c0 -8 -59 -9 -64 0
-3 3 11 7 30 7 19 0 34 -3 34 -7z m40 -1 c0 -4 -4 -8 -9 -8 -6 0 -12 4 -15 8
-3 5 1 9 9 9 8 0 15 -4 15 -9z m2224 -267 c3 -5 -1 -12 -10 -15 -8 -3 -12 -10
-9 -16 4 -6 -1 -7 -10 -3 -13 5 -14 7 -3 14 7 5 9 9 5 9 -11 0 2 20 13 20 5 0
11 -4 14 -9z m-107 -175 c-3 -7 -1 -18 6 -25 7 -7 4 -17 -15 -34 -13 -13 -30
-21 -35 -20 -6 2 -19 -6 -30 -19 -10 -13 -24 -24 -31 -26 -21 -4 1 28 52 77
25 24 46 47 46 52 0 5 3 9 6 9 3 0 4 -6 1 -14z"/>
<path d="M3989 813 c-1 -4 -1 -11 0 -15 0 -4 -8 -9 -18 -13 -10 -3 -29 -18
-42 -33 l-24 -27 26 23 c14 12 30 22 36 22 17 0 46 37 34 45 -6 3 -12 3 -12
-2z"/>
<path d="M2726 3498 c3 -5 10 -6 15 -3 13 9 11 12 -6 12 -8 0 -12 -4 -9 -9z"/>
<path d="M2870 3386 c0 -2 7 -7 16 -10 8 -3 12 -2 9 4 -6 10 -25 14 -25 6z"/>
<path d="M2916 3307 c3 -10 9 -15 12 -12 3 3 0 11 -7 18 -10 9 -11 8 -5 -6z"/>
<path d="M2970 3198 c0 -4 4 -8 9 -8 6 0 12 4 15 8 3 5 -1 9 -9 9 -8 0 -15 -4
-15 -9z"/>
<path d="M3044 3094 c-18 -14 -18 -15 4 -4 12 6 22 13 22 15 0 8 -5 6 -26 -11z"/>
<path d="M4036 3082 c-3 -5 1 -9 9 -9 8 0 12 4 9 9 -3 4 -7 8 -9 8 -2 0 -6 -4
-9 -8z"/>
<path d="M4035 3020 c3 -5 8 -10 11 -10 2 0 4 5 4 10 0 6 -5 10 -11 10 -5 0
-7 -4 -4 -10z"/>
<path d="M4068 2998 c10 -13 10 -17 0 -20 -8 -3 -7 -6 4 -10 20 -8 18 17 -2
35 -12 10 -12 9 -2 -5z"/>
<path d="M3095 2980 c-3 -5 -1 -10 4 -10 6 0 11 5 11 10 0 6 -2 10 -4 10 -3 0
-8 -4 -11 -10z"/>
<path d="M3115 2940 c-16 -7 -17 -9 -3 -9 9 -1 20 4 23 9 7 11 7 11 -20 0z"/>
<path d="M4080 2906 c0 -2 7 -7 16 -10 8 -3 12 -2 9 4 -6 10 -25 14 -25 6z"/>
<path d="M4070 2809 c0 -5 5 -7 10 -4 6 3 10 8 10 11 0 2 -4 4 -10 4 -5 0 -10
-5 -10 -11z"/>
<path d="M3323 2798 c9 -4 26 -4 39 1 20 8 18 9 -15 9 -26 -1 -34 -4 -24 -10z"/>
<path d="M3187 2774 c-21 -12 -27 -12 -27 -2 -1 8 -6 5 -15 -6 -16 -21 -10
-41 8 -29 23 15 39 12 32 -5 -11 -29 -10 -36 5 -37 8 -1 10 0 3 2 -7 2 -9 11
-6 19 4 11 9 12 18 4 10 -8 15 -7 21 2 4 7 4 10 -1 6 -4 -4 -14 0 -21 10 -18
23 -17 32 2 32 8 0 13 -4 9 -9 -9 -15 15 -25 28 -12 9 9 7 10 -7 5 -12 -4 -17
-4 -13 2 13 22 -8 32 -36 18z"/>
<path d="M3315 2780 c3 -6 2 -10 -3 -10 -15 0 -23 -28 -10 -36 6 -4 8 -3 4 4
-3 6 3 17 14 25 18 13 19 15 5 21 -9 3 -13 2 -10 -4z"/>
<path d="M4090 2780 c0 -5 5 -10 11 -10 5 0 7 5 4 10 -3 6 -8 10 -11 10 -2 0
-4 -4 -4 -10z"/>
<path d="M3256 2765 c4 -8 8 -15 10 -15 2 0 4 7 4 15 0 8 -4 15 -10 15 -5 0
-7 -7 -4 -15z"/>
<path d="M3350 2777 c0 -2 6 -10 14 -16 11 -9 16 -9 22 1 4 7 4 10 -1 6 -4 -4
-14 -3 -22 3 -7 6 -13 9 -13 6z"/>
<path d="M3979 2723 c-13 -15 -18 -23 -10 -18 9 5 12 4 10 -4 -3 -7 -7 -11
-10 -9 -2 2 -24 -12 -47 -30 -23 -19 -49 -35 -57 -36 -9 -1 -15 -5 -15 -9 0
-4 0 -12 0 -18 0 -6 7 -8 16 -5 12 5 15 2 10 -9 -3 -9 -2 -13 4 -10 6 3 10 13
10 21 0 8 5 14 10 14 6 0 10 7 8 16 -2 10 4 19 12 22 8 3 12 1 8 -3 -4 -5 -3
-14 3 -22 8 -9 8 -13 1 -13 -6 0 -16 -9 -22 -20 -9 -16 -8 -18 5 -14 8 3 13
10 10 14 -3 4 2 11 11 14 12 5 14 9 5 20 -9 10 -7 17 6 27 15 12 16 12 10 -3
-3 -10 -2 -18 3 -18 6 0 10 7 10 16 0 9 5 12 13 8 9 -6 9 -4 -1 8 -8 10 -9 19
-3 22 5 3 11 2 13 -3 1 -5 10 -2 18 7 13 14 12 15 -4 9 -12 -5 -16 -3 -13 5 2
7 11 12 20 10 23 -4 28 12 8 25 -16 10 -23 7 -42 -14z m37 5 c4 -7 4 -10 -1
-6 -4 4 -15 2 -24 -5 -14 -11 -14 -10 -2 6 16 20 18 21 27 5z m-50 -60 c4 -7
4 -10 -1 -6 -4 4 -15 2 -24 -5 -14 -11 -14 -10 -2 6 16 20 18 21 27 5z m-66
-43 c0 -2 -9 -9 -19 -15 -14 -7 -22 -7 -27 2 -4 6 -3 8 2 5 6 -3 16 -2 24 4
17 10 20 11 20 4z"/>
<path d="M4055 2740 c-3 -5 -1 -10 4 -10 6 0 11 5 11 10 0 6 -2 10 -4 10 -3 0
-8 -4 -11 -10z"/>
<path d="M4035 2700 c-3 -5 -1 -10 4 -10 6 0 11 5 11 10 0 6 -2 10 -4 10 -3 0
-8 -4 -11 -10z"/>
<path d="M3173 2645 c-3 -9 -3 -18 -1 -21 3 -3 8 4 11 16 6 23 -1 27 -10 5z"/>
<path d="M3986 2622 c-3 -5 1 -9 9 -9 8 0 12 4 9 9 -3 4 -7 8 -9 8 -2 0 -6 -4
-9 -8z"/>
<path d="M3150 2599 c0 -5 5 -7 10 -4 6 3 10 8 10 11 0 2 -4 4 -10 4 -5 0 -10
-5 -10 -11z"/>
<path d="M3190 2596 c14 -18 13 -19 -5 -13 -18 7 -19 6 -3 -6 10 -8 16 -17 13
-20 -3 -4 -2 -5 2 -2 14 11 11 34 -5 47 -16 12 -16 11 -2 -6z"/>
<path d="M3575 2591 c-3 -5 0 -13 6 -17 7 -4 9 -3 5 4 -3 5 0 13 6 15 9 4 10
6 1 6 -6 1 -14 -3 -18 -8z"/>
<path d="M3765 2590 c-4 -6 -11 -8 -16 -5 -5 3 -6 -1 -2 -10 5 -13 7 -14 14
-3 8 13 13 4 9 -17 -1 -5 5 -4 12 4 10 11 10 14 0 18 -6 3 -10 9 -6 14 3 5 3
9 0 9 -3 0 -8 -5 -11 -10z"/>
<path d="M3798 2582 c4 -10 7 -12 10 -4 2 7 9 9 15 5 7 -3 8 -2 4 2 -14 16
-36 14 -29 -3z"/>
<path d="M3630 2570 c-6 -11 -8 -20 -6 -20 3 0 10 9 16 20 6 11 8 20 6 20 -3
0 -10 -9 -16 -20z"/>
<path d="M3713 2572 c0 -10 7 -19 13 -19 9 0 10 5 3 19 -5 10 -12 18 -14 18
-2 0 -3 -8 -2 -18z"/>
<path d="M3686 2563 c-6 -14 -5 -15 5 -6 7 7 10 15 7 18 -3 3 -9 -2 -12 -12z"/>
<path d="M3832 2571 c-11 -7 -10 -9 3 -14 9 -4 14 -3 10 2 -3 5 1 12 7 14 7 3
9 6 3 6 -5 0 -16 -3 -23 -8z"/>
<path d="M3653 2555 c0 -8 4 -12 9 -9 5 3 6 10 3 15 -9 13 -12 11 -12 -6z"/>
<path d="M3161 2543 c11 -3 15 -12 13 -26 -4 -21 -4 -21 5 -2 11 25 5 35 -17
34 -15 -1 -15 -2 -1 -6z"/>
<path d="M3780 2540 c-9 -6 -10 -10 -3 -10 6 0 15 5 18 10 8 12 4 12 -15 0z"/>
<path d="M3810 2539 c0 -5 5 -7 10 -4 6 3 10 8 10 11 0 2 -4 4 -10 4 -5 0 -10
-5 -10 -11z"/>
<path d="M3157 2479 c4 -13 8 -18 11 -10 2 7 -1 18 -6 23 -8 8 -9 4 -5 -13z"/>
<path d="M3215 2491 c-3 -5 -2 -12 3 -15 5 -3 9 1 9 9 0 17 -3 19 -12 6z"/>
<path d="M3184 2470 c0 -13 4 -16 10 -10 7 7 7 13 0 20 -6 6 -10 3 -10 -10z"/>
<path d="M3174 2359 c-4 -7 -3 -9 4 -5 5 3 13 0 15 -6 4 -9 6 -10 6 -1 1 17
-16 25 -25 12z"/>
<path d="M3147 2349 c10 -10 9 -17 -5 -33 l-17 -21 25 20 c14 11 26 20 27 20
1 1 -8 7 -20 14 -17 11 -19 11 -10 0z"/>
<path d="M3147 2243 c-3 -5 3 -14 13 -21 14 -9 21 -9 26 0 4 6 3 8 -4 4 -6 -3
-15 1 -20 10 -5 9 -12 12 -15 7z"/>
<path d="M3160 2180 c-9 -6 -10 -10 -3 -10 6 0 15 5 18 10 8 12 4 12 -15 0z"/>
<path d="M3108 2142 c5 -9 7 -22 5 -28 -5 -15 25 -26 33 -12 4 6 3 8 -4 4 -6
-3 -13 -2 -17 3 -3 5 2 14 10 19 13 7 12 10 -10 20 -23 11 -25 10 -17 -6z"/>
<path d="M3038 2013 c10 -4 8 -9 -7 -19 -26 -19 -17 -41 16 -41 14 0 21 2 17
6 -5 3 -10 14 -12 25 -2 13 1 16 10 10 10 -6 10 -4 -1 9 -7 9 -19 17 -25 16
-6 0 -5 -3 2 -6z m6 -44 c-3 -5 -10 -7 -15 -3 -5 3 -7 10 -3 15 3 5 10 7 15 3
5 -3 7 -10 3 -15z"/>
<path d="M3036 1925 c-3 -8 -1 -15 4 -15 6 0 10 7 10 15 0 8 -2 15 -4 15 -2 0
-6 -7 -10 -15z"/>
<path d="M3076 1927 c3 -10 9 -15 12 -12 3 3 0 11 -7 18 -10 9 -11 8 -5 -6z"/>
<path d="M2931 1837 c-8 -10 -6 -19 10 -35 11 -12 25 -22 31 -22 7 0 3 7 -8
15 -16 12 -17 14 -3 15 9 0 19 7 23 15 4 12 1 12 -21 -2 -25 -17 -25 -17 -19
5 8 25 4 28 -13 9z"/>
<path d="M3000 1820 c-8 -5 -10 -10 -5 -10 6 0 17 5 25 10 8 5 11 10 5 10 -5
0 -17 -5 -25 -10z"/>
<path d="M2859 1745 c-1 -3 -2 -10 -3 -15 0 -6 -8 -15 -16 -20 -12 -7 -11 -9
6 -8 14 1 20 9 20 25 0 21 -4 31 -7 18z"/>
<path d="M2910 1720 c0 -5 5 -10 11 -10 5 0 7 5 4 10 -3 6 -8 10 -11 10 -2 0
-4 -4 -4 -10z"/>
<path d="M2750 1543 c0 -6 8 -17 18 -24 16 -13 16 -13 2 6 -8 11 -16 22 -17
24 -2 2 -3 0 -3 -6z"/>
<path d="M2546 1467 c-20 -19 -36 -29 -36 -23 0 6 -5 3 -11 -6 -7 -12 -7 -24
0 -35 7 -12 10 -14 11 -4 0 11 3 11 18 0 14 -11 15 -11 5 1 -19 21 -16 35 4
19 14 -12 16 -12 8 0 -6 11 -4 13 10 7 15 -5 16 -4 5 9 -15 18 1 20 18 3 9 -9
12 -9 12 0 0 7 -5 12 -11 12 -5 0 -7 5 -4 11 5 7 13 5 25 -6 27 -25 33 -1 6
24 l-23 22 -37 -34z m60 1 l19 -23 -21 18 c-20 17 -22 16 -47 -7 -15 -14 -27
-21 -27 -16 0 6 45 46 56 50 0 0 9 -10 20 -22z"/>
<path d="M1096 1473 c-6 -14 -5 -15 5 -6 7 7 10 15 7 18 -3 3 -9 -2 -12 -12z"/>
<path d="M2690 1461 c0 -6 4 -13 10 -16 6 -3 7 1 4 9 -7 18 -14 21 -14 7z"/>
<path d="M2656 1447 c3 -10 9 -15 12 -12 3 3 0 11 -7 18 -10 9 -11 8 -5 -6z"/>
<path d="M2465 1420 c-3 -5 -1 -10 4 -10 6 0 11 5 11 10 0 6 -2 10 -4 10 -3 0
-8 -4 -11 -10z"/>
<path d="M2566 1405 c-11 -8 -15 -15 -9 -15 6 0 16 7 23 15 16 19 11 19 -14 0z"/>
<path d="M3015 1410 c-4 -6 -10 -8 -14 -6 -4 3 -8 -1 -8 -9 0 -13 4 -12 19 2
18 16 22 23 14 23 -3 0 -8 -5 -11 -10z"/>
<path d="M2476 1385 c-9 -26 -7 -32 5 -12 6 10 9 21 6 23 -2 3 -7 -2 -11 -11z"/>
<path d="M2330 1358 c0 -6 -3 -8 -7 -5 -10 11 -32 -13 -26 -29 3 -8 12 -14 20
-14 9 0 13 6 10 15 -4 8 -2 17 3 20 6 4 10 2 10 -4 0 -5 9 -9 19 -8 14 1 17 5
11 13 -6 6 -8 13 -5 15 2 3 -5 5 -15 6 -11 1 -20 -3 -20 -9z m-13 -23 c0 -8
-4 -12 -9 -9 -5 3 -6 10 -3 15 9 13 12 11 12 -6z"/>
<path d="M2510 1366 c0 -2 7 -7 16 -10 8 -3 12 -2 9 4 -6 10 -25 14 -25 6z"/>
<path d="M1388 1343 c6 -2 9 -10 6 -15 -4 -7 -2 -8 5 -4 13 9 5 26 -12 25 -9
0 -8 -2 1 -6z"/>
<path d="M2450 1339 c0 -5 5 -7 10 -4 6 3 10 8 10 11 0 2 -4 4 -10 4 -5 0 -10
-5 -10 -11z"/>
<path d="M2256 1331 c-4 -6 -16 -9 -27 -6 -14 5 -19 2 -19 -11 0 -13 -3 -14
-14 -5 -11 9 -17 5 -31 -16 -10 -16 -14 -25 -10 -21 5 4 14 3 22 -4 8 -6 13
-7 12 -2 -4 21 2 35 11 29 6 -4 8 -10 6 -14 -3 -4 1 -8 9 -8 12 0 12 3 2 16
-10 12 -9 14 6 8 10 -4 27 -2 37 3 13 7 20 6 23 -3 3 -6 6 -7 6 -1 1 5 -5 18
-12 29 -10 13 -16 15 -21 6z m14 -10 c0 -15 -32 -23 -44 -11 -8 8 -6 9 5 5 10
-4 20 -2 24 4 8 13 15 14 15 2z"/>
<path d="M3155 1330 c3 -5 8 -10 11 -10 2 0 4 5 4 10 0 6 -5 10 -11 10 -5 0
-7 -4 -4 -10z"/>
<path d="M1530 1312 c0 -15 28 -23 36 -9 4 7 4 9 -1 5 -4 -4 -14 -3 -22 3 -8
7 -13 8 -13 1z"/>
<path d="M2350 1310 c-9 -6 -10 -10 -3 -10 6 0 15 5 18 10 8 12 4 12 -15 0z"/>
<path d="M1490 1300 c0 -5 5 -10 11 -10 5 0 7 5 4 10 -3 6 -8 10 -11 10 -2 0
-4 -4 -4 -10z"/>
<path d="M1575 1289 c-4 -6 -5 -12 -2 -15 2 -3 7 2 10 11 7 17 1 20 -8 4z"/>
<path d="M1612 1286 c7 -8 15 -12 17 -11 5 6 -10 25 -20 25 -5 0 -4 -6 3 -14z"/>
<path d="M2095 1290 c-3 -5 -3 -10 1 -10 4 0 -1 -10 -12 -21 -19 -22 -19 -22
3 -8 13 7 25 19 27 26 6 15 -10 27 -19 13z"/>
<path d="M1675 1274 l-20 -16 20 4 c15 2 19 -2 17 -17 -2 -16 -1 -17 7 -5 6 9
6 19 1 26 -6 6 -7 14 -3 17 12 12 -2 7 -22 -9z"/>
<path d="M2023 1269 c15 -23 57 -13 57 14 0 8 -3 7 -9 -2 -7 -11 -9 -11 -14 0
-4 10 -6 10 -6 2 -1 -7 -6 -13 -12 -13 -5 0 -8 4 -5 8 3 5 -1 9 -8 9 -11 0
-12 -4 -3 -18z"/>
<path d="M2257 1275 c-4 -8 -3 -16 1 -19 4 -3 9 4 9 15 2 23 -3 25 -10 4z"/>
<path d="M1590 1269 c0 -5 5 -7 10 -4 6 3 10 8 10 11 0 2 -4 4 -10 4 -5 0 -10
-5 -10 -11z"/>
<path d="M2120 1259 c-7 -11 -10 -23 -7 -25 2 -2 9 7 15 21 14 30 7 33 -8 4z"/>
<path d="M2010 1251 c0 -7 -4 -9 -10 -6 -5 3 -10 1 -10 -4 0 -6 4 -11 9 -11
13 0 25 20 17 27 -3 4 -6 1 -6 -6z"/>
<path d="M4110 1250 c-9 -6 -10 -10 -3 -10 6 0 15 5 18 10 8 12 4 12 -15 0z"/>
<path d="M1770 1241 c0 -6 4 -12 8 -15 5 -3 9 1 9 9 0 8 -4 15 -9 15 -4 0 -8
-4 -8 -9z"/>
<path d="M1916 1233 c-6 -14 -5 -15 5 -6 7 7 10 15 7 18 -3 3 -9 -2 -12 -12z"/>
<path d="M4108 1216 c4 -6 7 -14 7 -18 0 -19 11 -14 11 6 0 12 -6 23 -13 23
-6 0 -9 -5 -5 -11z"/>
<path d="M4109 1166 c7 -8 9 -21 5 -27 -4 -8 -3 -9 4 -5 17 10 15 33 -4 40
-14 5 -15 4 -5 -8z"/>
<path d="M4145 1080 c-3 -6 1 -7 9 -4 18 7 21 14 7 14 -6 0 -13 -4 -16 -10z"/>
<path d="M4117 967 c-3 -8 -2 -20 3 -26 5 -9 8 -4 8 13 0 29 -3 32 -11 13z"/>
<path d="M4104 917 c0 -13 6 -24 13 -24 9 0 9 6 1 21 -15 30 -16 30 -14 3z"/>
<path d="M4073 805 c0 -8 4 -12 9 -9 5 3 6 10 3 15 -9 13 -12 11 -12 -6z"/>
<path d="M4013 725 c0 -8 4 -12 9 -9 5 3 6 10 3 15 -9 13 -12 11 -12 -6z"/>
<path d="M3336 702 c-3 -5 1 -9 9 -9 8 0 12 4 9 9 -3 4 -7 8 -9 8 -2 0 -6 -4
-9 -8z"/>
<path d="M3831 686 c-7 -8 -21 -13 -31 -11 -11 2 -24 -4 -29 -13 -5 -9 -13
-13 -17 -9 -4 4 -16 0 -26 -10 -10 -9 -18 -12 -18 -6 0 5 -11 9 -25 9 -14 -1
-25 -5 -25 -9 0 -4 0 -13 0 -19 0 -9 3 -10 8 -2 4 6 21 10 39 9 17 -1 32 1 31
4 -2 18 4 19 21 4 11 -9 17 -23 14 -32 -4 -14 -3 -14 6 -1 6 9 7 18 1 24 -17
17 -11 29 8 15 14 -11 15 -11 5 1 -19 21 -16 35 4 19 12 -10 17 -11 20 -2 2 7
11 9 19 6 8 -3 14 0 14 7 0 9 4 9 17 -1 11 -10 14 -10 9 -1 -4 6 -3 12 1 12 5
0 15 -6 22 -12 11 -11 12 -10 6 1 -6 11 -4 13 9 8 9 -4 15 -3 11 2 -3 6 -18 9
-33 7 -15 -1 -32 1 -38 6 -7 5 -16 2 -23 -6z"/>
<path d="M3970 681 c0 -6 4 -13 10 -16 6 -3 7 1 4 9 -7 18 -14 21 -14 7z"/>
<path d="M3396 662 c-3 -4 4 -9 15 -9 23 -2 25 3 4 10 -8 4 -16 3 -19 -1z"/>
<path d="M3457 649 c7 -7 15 -10 18 -7 3 3 -2 9 -12 12 -14 6 -15 5 -6 -5z"/>
<path d="M3493 645 c0 -8 4 -15 9 -15 4 0 8 4 8 9 0 6 -4 12 -8 15 -5 3 -9 -1
-9 -9z"/>
<path d="M3820 640 c-9 -6 -10 -10 -3 -10 6 0 15 5 18 10 8 12 4 12 -15 0z"/>
<path d="M3850 639 c0 -5 5 -7 10 -4 6 3 10 8 10 11 0 2 -4 4 -10 4 -5 0 -10
-5 -10 -11z"/>
<path d="M3557 629 c7 -7 15 -10 18 -7 3 3 -2 9 -12 12 -14 6 -15 5 -6 -5z"/>
<path d="M3516 622 c-2 -4 4 -8 14 -8 10 0 16 4 14 8 -3 4 -9 8 -14 8 -5 0
-11 -4 -14 -8z"/>
<path d="M3636 605 c-3 -8 -1 -15 4 -15 6 0 10 7 10 15 0 8 -2 15 -4 15 -2 0
-6 -7 -10 -15z"/>
<path d="M3675 599 c-3 -4 2 -6 10 -5 21 3 28 13 10 13 -9 0 -18 -4 -20 -8z"/>
</g>
</svg>
